{
.appVersion = "1075";
DisplayStrings = (
"kleenex xerodermatic exploded cacomixls extravagate externality hoaxers flexitime reannexes extractants mixers sexvalent phytoalexin detoxifying apex excaudate hyrax extraverts exhibited explant extirpate maximilian irreflexion xosa rax ataraxy paradoxal extensionality exoplasms axolotls sexlessness exactress exaggerator deoxidating asphyxiates sextonship genetrix unboxed dyslexic thixotropes exoterically exorbitancy exmouth monoxylous extraditing contextualising expugns vexillologists executed quixotic",
A,
"ILLINOIAN AHINT IONIAN OONA NANNA ALALIA INTONATION LANA ATALANTA LALO NALLAH ANATTA TOLA LAT ANNOTATION ATTILA TANNA ANAL HAT TOTAL NAIANT NINA TAN LATITATION NAOI TITAN INHALANT HALO TALL ANIL LANAI ANANA LOATH TAO LAHTI ITALA ALLOA TATTOO ANT TATI ALIT NANA HIANT ALOHA NOTATION ATLANTA ANATOLIAN NOLA ALL TAHINA"
);
classes = (
{
code = "i j period ellipsis";
name = SMALLDOTS;
},
{
code = "i.alt j.alt period.alt ellipsis.alt";
name = BIGDOTS;
}
);
date = "2018-09-27 20:33:27 +0000";
familyName = "XXIX Grostesque";
featurePrefixes = (
{
automatic = 1;
code = "languagesystem DFLT dflt;\012languagesystem latn dflt;\012languagesystem latn ROM;\012languagesystem latn MOL;\012languagesystem latn KAZ;\012languagesystem latn TAT;\012languagesystem latn TRK;\012languagesystem latn CRT;\012languagesystem latn AZE;\012";
name = Languagesystems;
}
);
features = (
{
automatic = 1;
code = "feature ccmp;\012feature locl;\012feature subs;\012feature sinf;\012feature sups;\012feature numr;\012feature dnom;\012feature frac;\012feature ordn;\012feature lnum;\012feature pnum;\012feature tnum;\012feature onum;\012feature case;\012feature ss01;\012feature ss02;\012";
name = aalt;
},
{
automatic = 1;

glyphs = (
{
color = 7;
glyphname = A;
lastChange = "2019-01-16 22:36:08 +0000";
layers = (
{
layerId = "3F9681A4-5725-441D-B9D2-8C7C614AC445";
paths = (
{
closed = 1;
nodes = (
"194 200 LINE",
"583 200 LINE",
"583 286 LINE",
"194 286 LINE"
);
},
{
closed = 1;
nodes = (
"139 0 LINE",
"360 619 LINE SMOOTH",
"366 637 OFFCURVE",
"370 655 OFFCURVE",
"372 673 CURVE",
"388 673 LINE",
"390 655 OFFCURVE",
"394 637 OFFCURVE",
"400 619 CURVE SMOOTH",
"621 0 LINE",
"725 0 LINE",
"453 740 LINE",
"307 740 LINE",
"35 0 LINE"
);
}
);
width = 760;
}
);
leftKerningGroup = A;
rightKerningGroup = A;
unicode = 0041;
},
{
color = 3;
glyphname = B;
lastChange = "2019-01-16 19:03:22 +0000";
layers = (
{
background = {
paths = (
{
closed = 1;
nodes = (
"473 399 LINE",
"600 384 OFFCURVE",
"655 299 OFFCURVE",
"655 217 CURVE SMOOTH",
"655 57 OFFCURVE",
"553 0 OFFCURVE",
"374 0 CURVE SMOOTH",
"80 0 LINE",
"80 800 LINE",
"304 800 LINE SMOOTH",
"509 800 OFFCURVE",
"625 739 OFFCURVE",
"625 579 CURVE SMOOTH",
"625 502 OFFCURVE",
"578 422 OFFCURVE",
"473 403 CURVE"
);
},
{
closed = 1;
nodes = (
"359 85 LINE SMOOTH",
"482 85 OFFCURVE",
"552 119 OFFCURVE",
"552 217 CURVE SMOOTH",
"552 300 OFFCURVE",
"492 355 OFFCURVE",
"339 355 CURVE SMOOTH",
"155 355 LINE",
"180 380 LINE",
"180 60 LINE",
"155 85 LINE"
);
},
{
closed = 1;
nodes = (
"309 440 LINE SMOOTH",
"462 440 OFFCURVE",
"522 490 OFFCURVE",
"522 579 CURVE SMOOTH",
"522 677 OFFCURVE",
"445 715 OFFCURVE",
"309 715 CURVE SMOOTH",
"155 715 LINE",
"180 740 LINE",
"180 415 LINE",
"155 440 LINE"
);
}
);
};
layerId = "3F9681A4-5725-441D-B9D2-8C7C614AC445";
paths = (
{
closed = 1;
nodes = (
"483 378 LINE",
"604 363 OFFCURVE",
"651 284 OFFCURVE",
"651 188 CURVE SMOOTH",
"651 50 OFFCURVE",
"534 0 OFFCURVE",
"392 0 CURVE SMOOTH",
"120 0 LINE",
"120 740 LINE",
"327 740 LINE SMOOTH",
"516 740 OFFCURVE",
"623 693 OFFCURVE",
"623 545 CURVE SMOOTH",
"623 476 OFFCURVE",
"580 402 OFFCURVE",
"483 381 CURVE"
);
},
{
closed = 1;
nodes = (
"378 79 LINE SMOOTH",
"489 79 OFFCURVE",
"556 115 OFFCURVE",
"556 201 CURVE SMOOTH",
"556 286 OFFCURVE",
"504 332 OFFCURVE",
"359 332 CURVE SMOOTH",
"190 332 LINE",
"212 356 LINE",
"212 54 LINE",
"190 79 LINE"
);
},
{
closed = 1;
nodes = (
"331 415 LINE SMOOTH",
"473 415 OFFCURVE",
"529 463 OFFCURVE",
"529 545 CURVE SMOOTH",
"529 636 OFFCURVE",
"457 661 OFFCURVE",
"331 661 CURVE SMOOTH",
"190 661 LINE",
"212 684 LINE",
"212 390 LINE",
"190 415 LINE"
);
}
);
width = 705;
}
);
leftKerningGroup = H;
leftMetricsKey = "=H";
rightKerningGroup = B;
unicode = 0042;
},
{
color = 3;
glyphname = C;
lastChange = "2019-01-16 19:03:22 +0000";
layers = (
{
layerId = "3F9681A4-5725-441D-B9D2-8C7C614AC445";
paths = (
{
closed = 1;
nodes = (
"85 139 OFFCURVE",
"247 -20 OFFCURVE",
"455 -20 CURVE SMOOTH",
"652 -20 OFFCURVE",
"789 117 OFFCURVE",
"793 303 CURVE",
"695 303 LINE",
"691 162 OFFCURVE",
"592 61 OFFCURVE",
"445 61 CURVE SMOOTH",
"307 61 OFFCURVE",
"186 183 OFFCURVE",
"186 374 CURVE SMOOTH",
"186 560 OFFCURVE",
"306 680 OFFCURVE",
"444 680 CURVE SMOOTH",
"591 680 OFFCURVE",
"688 578 OFFCURVE",
"692 438 CURVE",
"790 438 LINE",
"786 623 OFFCURVE",
"650 760 OFFCURVE",
"452 760 CURVE SMOOTH",
"244 760 OFFCURVE",
"85 604 OFFCURVE",
"85 374 CURVE SMOOTH"
);
}
);
width = 853;
}
);
leftKerningGroup = O;
leftMetricsKey = "=O";
rightKerningGroup = C;
unicode = 0043;
},
{
color = 3;
glyphname = D;
lastChange = "2019-01-16 19:03:22 +0000";
layers = (
{
layerId = "3F9681A4-5725-441D-B9D2-8C7C614AC445";
paths = (
{
closed = 1;
nodes = (
"83 740 LINE",
"317 740 LINE SMOOTH",
"562 740 OFFCURVE",
"690 611 OFFCURVE",
"690 370 CURVE SMOOTH",
"690 143 OFFCURVE",
"553 0 OFFCURVE",
"317 0 CURVE SMOOTH",
"83 0 LINE"
);
},
{
closed = 1;
nodes = (
"176 33 LINE",
"130 79 LINE",
"305 79 LINE SMOOTH",
"494 79 OFFCURVE",
"591 183 OFFCURVE",
"591 370 CURVE SMOOTH",
"591 569 OFFCURVE",
"499 662 OFFCURVE",
"305 662 CURVE SMOOTH",
"130 662 LINE",
"176 707 LINE"
);
}
);
width = 796;
}
);
leftKerningGroup = H;
leftMetricsKey = "=H";
rightKerningGroup = O;
rightMetricsKey = "=O";
unicode = 0044;
},
{
color = 3;
glyphname = E;
lastChange = "2019-01-16 19:03:22 +0000";
layers = (
{
layerId = "3F9681A4-5725-441D-B9D2-8C7C614AC445";
paths = (
{
closed = 1;
nodes = (
"576 0 LINE",
"576 77 LINE",
"153 77 LINE",
"176 54 LINE",
"176 358 LINE",
"153 335 LINE",
"542 335 LINE",
"542 413 LINE",
"153 413 LINE",
"176 390 LINE",
"176 686 LINE",
"153 663 LINE",
"562 663 LINE",
"562 740 LINE",
"83 740 LINE",
"83 0 LINE"
);
}
);
width = 673;
}
);
leftKerningGroup = H;
leftMetricsKey = "=H";
rightKerningGroup = E;
unicode = 0045;
},
{
color = 3;
glyphname = F;
lastChange = "2019-01-16 19:03:22 +0000";
layers = (
{
layerId = "3F9681A4-5725-441D-B9D2-8C7C614AC445";
paths = (
{
closed = 1;
nodes = (
"176 0 LINE",
"176 349 LINE",
"153 326 LINE",
"542 326 LINE",
"542 404 LINE",
"153 404 LINE",
"176 381 LINE",
"176 687 LINE",
"153 664 LINE",
"563 664 LINE",
"563 740 LINE",
"83 740 LINE",
"83 0 LINE"
);
}
);
width = 638;
}
);
leftKerningGroup = H;
leftMetricsKey = "=H";
rightKerningGroup = F;
unicode = 0046;
},
{
color = 3;
glyphname = G;
lastChange = "2019-01-16 19:03:22 +0000";
layers = (
{
background = {
paths = (
{
closed = 1;
nodes = (
"718 61 OFFCURVE",
"722 33 OFFCURVE",
"729 0 CURVE",
"824 0 LINE",
"813 61 OFFCURVE",
"809 117 OFFCURVE",
"809 183 CURVE SMOOTH",
"809 800 LINE",
"714 800 LINE",
"714 513 LINE",
"710 513 LINE",
"663 585 OFFCURVE",
"595 625 OFFCURVE",
"513 625 CURVE SMOOTH",
"350 625 OFFCURVE",
"255 487 OFFCURVE",
"255 307 CURVE SMOOTH",
"255 125 OFFCURVE",
"350 -15 OFFCURVE",
"518 -15 CURVE SMOOTH",
"595 -15 OFFCURVE",
"675 26 OFFCURVE",
"713 99 CURVE",
"717 99 LINE"
);
},
{
closed = 1;
nodes = (
"721 155 OFFCURVE",
"646 59 OFFCURVE",
"538 59 CURVE SMOOTH",
"431 59 OFFCURVE",
"353 151 OFFCURVE",
"353 306 CURVE SMOOTH",
"353 455 OFFCURVE",
"434 549 OFFCURVE",
"538 549 CURVE SMOOTH",
"646 549 OFFCURVE",
"721 455 OFFCURVE",
"721 306 CURVE SMOOTH"
);
}
);
};
layerId = "3F9681A4-5725-441D-B9D2-8C7C614AC445";
paths = (
{
closed = 1;
nodes = (
"689 142 LINE",
"689 93 OFFCURVE",
"695 43 OFFCURVE",
"704 -6 CURVE",
"791 -6 LINE",
"777 70 OFFCURVE",
"773 116 OFFCURVE",
"773 177 CURVE SMOOTH",
"773 360 LINE",
"337 360 LINE",
"337 280 LINE",
"712 280 LINE",
"672 318 LINE",
"672 133 OFFCURVE",
"559 61 OFFCURVE",
"431 61 CURVE SMOOTH",
"272 61 OFFCURVE",
"163 184 OFFCURVE",
"163 373 CURVE SMOOTH",
"163 560 OFFCURVE",
"284 679 OFFCURVE",
"427 679 CURVE SMOOTH",
"549 679 OFFCURVE",
"669 606 OFFCURVE",
"669 439 CURVE",
"767 439 LINE",
"767 643 OFFCURVE",
"611 760 OFFCURVE",
"431 760 CURVE SMOOTH",
"223 760 OFFCURVE",
"63 604 OFFCURVE",
"63 373 CURVE SMOOTH",
"63 139 OFFCURVE",
"213 -20 OFFCURVE",
"423 -20 CURVE SMOOTH",
"543 -20 OFFCURVE",
"636 36 OFFCURVE",
"685 142 CURVE"
);
}
);
width = 879;
}
);
leftKerningGroup = O;
leftMetricsKey = "=O";
rightKerningGroup = G;
unicode = 0047;
},
{
color = 7;
glyphname = H;
lastChange = "2019-01-16 21:41:07 +0000";
layers = (
{
layerId = "3F9681A4-5725-441D-B9D2-8C7C614AC445";
paths = (
{
closed = 1;
nodes = (
"163 0 LINE",
"163 354 LINE",
"140 331 LINE",
"620 331 LINE",
"597 354 LINE",
"597 0 LINE",
"695 0 LINE",
"695 740 LINE",
"597 740 LINE",
"597 394 LINE",
"620 417 LINE",
"140 417 LINE",
"163 394 LINE",
"163 740 LINE",
"65 740 LINE",
"65 0 LINE"
);
}
);
width = 760;
}
);
leftKerningGroup = H;
rightKerningGroup = H;
unicode = 0048;
},
{
color = 7;
glyphname = I;
lastChange = "2019-01-16 21:40:07 +0000";
layers = (
{
layerId = "3F9681A4-5725-441D-B9D2-8C7C614AC445";
paths = (
{
closed = 1;
nodes = (
"510 0 LINE",
"510 86 LINE",
"311 86 LINE",
"334 61 LINE",
"334 679 LINE",
"311 656 LINE",
"507 656 LINE",
"507 740 LINE",
"63 740 LINE",
"63 656 LINE",
"259 656 LINE",
"236 679 LINE",
"236 61 LINE",
"259 86 LINE",
"60 86 LINE",
"60 0 LINE"
);
}
);
width = 570;
}
);
leftKerningGroup = H;
rightKerningGroup = H;
unicode = 0049;
},
{
color = 3;
glyphname = J;
lastChange = "2019-01-16 19:03:22 +0000";
layers = (
{
layerId = "3F9681A4-5725-441D-B9D2-8C7C614AC445";
paths = (
{
closed = 1;
nodes = (
"182 0 LINE SMOOTH",
"277 0 OFFCURVE",
"329 57 OFFCURVE",
"329 157 CURVE SMOOTH",
"329 740 LINE",
"236 740 LINE",
"236 159 LINE SMOOTH",
"236 98 OFFCURVE",
"221 82 OFFCURVE",
"162 82 CURVE SMOOTH",
"28 82 LINE",
"28 0 LINE"
);
}
);
width = 429;
}
);
leftKerningGroup = J;
rightKerningGroup = U;
rightMetricsKey = "=U";
unicode = 004A;
},
{
color = 3;
glyphname = K;
lastChange = "2019-01-16 19:03:22 +0000";
layers = (
{
background = {
paths = (
{
closed = 1;
nodes = (
"180 0 LINE",
"180 313 LINE",
"149 235 LINE",
"338 443 LINE",
"342 443 LINE",
"589 0 LINE",
"700 0 LINE",
"407 512 LINE",
"407 516 LINE",
"669 800 LINE",
"544 800 LINE",
"184 398 LINE",
"180 398.208 LINE",
"180 800 LINE",
"80 800 LINE",
"80 0 LINE"
);
}
);
};
layerId = "3F9681A4-5725-441D-B9D2-8C7C614AC445";
paths = (
{
closed = 1;
nodes = (
"177 0 LINE",
"177 289 LINE",
"148 217 LINE",
"323 410 LINE",
"326 410 LINE",
"555 0 LINE",
"657 0 LINE",
"386 473 LINE",
"386 477 LINE",
"629 740 LINE",
"513 740 LINE",
"169 355 LINE",
"166 358 LINE",
"174 371 OFFCURVE",
"177 384 OFFCURVE",
"177 404 CURVE SMOOTH",
"177 740 LINE",
"84 740 LINE",
"84 0 LINE"
);
}
);
width = 700;
}
);
leftKerningGroup = H;
leftMetricsKey = "=H";
rightKerningGroup = K;
unicode = 004B;
},
{
color = 7;
glyphname = L;
lastChange = "2019-01-16 21:39:42 +0000";
layers = (
{
layerId = "3F9681A4-5725-441D-B9D2-8C7C614AC445";
paths = (
{
closed = 1;
nodes = (
"550 0 LINE",
"550 86 LINE",
"139 86 LINE",
"163 63 LINE",
"163 740 LINE",
"65 740 LINE",
"65 0 LINE"
);
}
);
width = 570;
}
);
leftKerningGroup = H;
leftMetricsKey = H;
rightKerningGroup = L;
unicode = 004C;
},
{
color = 3;
glyphname = M;
lastChange = "2019-01-16 19:03:22 +0000";
layers = (
{
layerId = "3F9681A4-5725-441D-B9D2-8C7C614AC445";
paths = (
{
closed = 1;
nodes = (
"173 0 LINE",
"173 576 LINE SMOOTH",
"173 600 OFFCURVE",
"170 608 OFFCURVE",
"166 620 CURVE",
"172 622 LINE",
"409 0 LINE",
"525 0 LINE",
"762 622 LINE",
"768 620 LINE",
"764 608 OFFCURVE",
"761 600 OFFCURVE",
"761 576 CURVE SMOOTH",
"761 0 LINE",
"850 0 LINE",
"850 740 LINE",
"719 740 LINE",
"482 130 LINE SMOOTH",
"475 110 OFFCURVE",
"472 102 OFFCURVE",
"469 81 CURVE",
"465 81 LINE",
"463 102 OFFCURVE",
"460 110 OFFCURVE",
"452 130 CURVE SMOOTH",
"215 740 LINE",
"84 740 LINE",
"84 0 LINE"
);
}
);
width = 998;
}
);
leftKerningGroup = H;
leftMetricsKey = "=H";
rightKerningGroup = H;
rightMetricsKey = "=H";
unicode = 004D;
},
{
color = 7;
glyphname = N;
lastChange = "2019-01-16 21:44:24 +0000";
layers = (
{
layerId = "3F9681A4-5725-441D-B9D2-8C7C614AC445";
paths = (
{
closed = 1;
nodes = (
"163 0 LINE",
"163 609 LINE",
"179 609 LINE",
"545 0 LINE",
"695 0 LINE",
"695 740 LINE",
"597 740 LINE",
"597 127 LINE",
"582 127 LINE",
"209 740 LINE",
"65 740 LINE",
"65 0 LINE"
);
}
);
width = 760;
}
);
leftKerningGroup = H;
leftMetricsKey = H;
rightKerningGroup = H;
rightMetricsKey = H;
unicode = 004E;
},
{
color = 7;
glyphname = O;
lastChange = "2019-01-16 21:41:51 +0000";
layers = (
{
layerId = "3F9681A4-5725-441D-B9D2-8C7C614AC445";
paths = (
{
closed = 1;
nodes = (
"596 -20 OFFCURVE",
"730 139 OFFCURVE",
"730 373 CURVE SMOOTH",
"730 604 OFFCURVE",
"596 760 OFFCURVE",
"380 760 CURVE SMOOTH",
"173 760 OFFCURVE",
"30 604 OFFCURVE",
"30 373 CURVE SMOOTH",
"30 139 OFFCURVE",
"173 -20 OFFCURVE",
"380 -20 CURVE SMOOTH"
);
},
{
closed = 1;
nodes = (
"241 64 OFFCURVE",
"134 186 OFFCURVE",
"134 373 CURVE SMOOTH",
"134 558 OFFCURVE",
"241 676 OFFCURVE",
"380 676 CURVE SMOOTH",
"528 676 OFFCURVE",
"626 558 OFFCURVE",
"626 373 CURVE SMOOTH",
"626 185 OFFCURVE",
"528 64 OFFCURVE",
"380 64 CURVE SMOOTH"
);
}
);
width = 760;
}
);
leftKerningGroup = O;
rightKerningGroup = O;
unicode = 004F;
},
{
color = 3;
glyphname = P;
lastChange = "2019-01-16 19:03:22 +0000";
layers = (
{
background = {
paths = (
{
closed = 1;
nodes = (
"334 800 LINE SMOOTH",
"528 800 OFFCURVE",
"655 754 OFFCURVE",
"655 559 CURVE SMOOTH",
"655 373 OFFCURVE",
"529 315 OFFCURVE",
"328 315 CURVE SMOOTH",
"155 315 LINE",
"180 340 LINE",
"180 0 LINE",
"80 0 LINE",
"80 800 LINE"
);
},
{
closed = 1;
nodes = (
"180 372 LINE",
"155 400 LINE",
"339 400 LINE SMOOTH",
"471 400 OFFCURVE",
"552 429 OFFCURVE",
"552 559 CURVE SMOOTH",
"552 687 OFFCURVE",
"474 715 OFFCURVE",
"339 715 CURVE SMOOTH",
"155 715 LINE",
"180 743 LINE"
);
}
);
};
layerId = "3F9681A4-5725-441D-B9D2-8C7C614AC445";
paths = (
{
closed = 1;
nodes = (
"319 740 LINE SMOOTH",
"509 740 OFFCURVE",
"616 680 OFFCURVE",
"616 519 CURVE SMOOTH",
"616 375 OFFCURVE",
"531 291 OFFCURVE",
"313 291 CURVE SMOOTH",
"153 291 LINE",
"176 315 LINE",
"176 0 LINE",
"84 0 LINE",
"84 740 LINE"
);
},
{
closed = 1;
nodes = (
"176 344 LINE",
"153 370 LINE",
"324 370 LINE SMOOTH",
"465 370 OFFCURVE",
"521 425 OFFCURVE",
"521 519 CURVE SMOOTH",
"521 623 OFFCURVE",
"449 662 OFFCURVE",
"324 662 CURVE SMOOTH",
"153 662 LINE",
"176 688 LINE"
);
}
);
width = 695;
}
);
leftKerningGroup = H;
leftMetricsKey = "=H";
rightKerningGroup = P;
unicode = 0050;
},
{
color = 3;
glyphname = Q;
lastChange = "2019-01-16 19:03:22 +0000";
layers = (
{
layerId = "3F9681A4-5725-441D-B9D2-8C7C614AC445";
paths = (
{
closed = 1;
nodes = (
"63 139 OFFCURVE",
"208 -20 OFFCURVE",
"415 -20 CURVE SMOOTH",
"506 -20 OFFCURVE",
"583 8 OFFCURVE",
"642 58 CURVE",
"646 58 LINE",
"703 -6 LINE",
"820 -6 LINE",
"700 118 LINE",
"700 122 LINE",
"745 187 OFFCURVE",
"769 273 OFFCURVE",
"769 372 CURVE SMOOTH",
"769 603 OFFCURVE",
"633 759 OFFCURVE",
"415 759 CURVE SMOOTH",
"208 759 OFFCURVE",
"63 603 OFFCURVE",
"63 372 CURVE SMOOTH"
);
},
{
closed = 1;
nodes = (
"165 559 OFFCURVE",
"274 678 OFFCURVE",
"415 678 CURVE SMOOTH",
"567 678 OFFCURVE",
"668 559 OFFCURVE",
"668 372 CURVE SMOOTH",
"668 304 OFFCURVE",
"655 244 OFFCURVE",
"630 195 CURVE",
"626 195 LINE",
"443 394 LINE",
"380 335 LINE",
"580 128 LINE",
"580 125 LINE",
"536 83 OFFCURVE",
"481 61 OFFCURVE",
"415 61 CURVE SMOOTH",
"274 61 OFFCURVE",
"165 184 OFFCURVE",
"165 372 CURVE SMOOTH"
);
}
);
width = 866;
}
);
leftKerningGroup = O;
leftMetricsKey = "=O";
rightKerningGroup = O;
unicode = 0051;
},
{
color = 3;
glyphname = R;
lastChange = "2019-01-16 19:03:22 +0000";
layers = (
{
background = {
paths = (
{
closed = 1;
nodes = (
"80 800 LINE",
"334 800 LINE SMOOTH",
"539 800 OFFCURVE",
"655 734 OFFCURVE",
"655 564 CURVE SMOOTH",
"655 458 OFFCURVE",
"609 387 OFFCURVE",
"502 352 CURVE",
"502 348 LINE",
"546 338 OFFCURVE",
"561 304 OFFCURVE",
"575 257 CURVE SMOOTH",
"654 0 LINE",
"546 0 LINE",
"465 279 LINE SMOOTH",
"454 318 OFFCURVE",
"437 325 OFFCURVE",
"381 325 CURVE SMOOTH",
"155 325 LINE",
"180 350 LINE",
"180 0 LINE",
"80 0 LINE"
);
},
{
closed = 1;
nodes = (
"339 410 LINE SMOOTH",
"492 410 OFFCURVE",
"554 460 OFFCURVE",
"554 564 CURVE SMOOTH",
"554 672 OFFCURVE",
"475 715 OFFCURVE",
"339 715 CURVE SMOOTH",
"155 715 LINE",
"180 740 LINE",
"180 385 LINE",
"155 410 LINE"
);
}
);
};
layerId = "3F9681A4-5725-441D-B9D2-8C7C614AC445";
paths = (
{
closed = 1;
nodes = (
"82 740 LINE",
"317 740 LINE SMOOTH",
"507 740 OFFCURVE",
"612 679 OFFCURVE",
"614 526 CURVE SMOOTH",
"615 424 OFFCURVE",
"590 366 OFFCURVE",
"491 326 CURVE",
"491 322 LINE",
"532 313 OFFCURVE",
"546 281 OFFCURVE",
"558 238 CURVE SMOOTH",
"632 0 LINE",
"532 0 LINE",
"457 258 LINE SMOOTH",
"447 294 OFFCURVE",
"431 301 OFFCURVE",
"379 301 CURVE SMOOTH",
"151 301 LINE",
"175 324 LINE",
"175 0 LINE",
"82 0 LINE"
);
},
{
closed = 1;
nodes = (
"322 379 LINE SMOOTH",
"463 379 OFFCURVE",
"521 426 OFFCURVE",
"521 522 CURVE SMOOTH",
"521 622 OFFCURVE",
"447 661 OFFCURVE",
"322 661 CURVE SMOOTH",
"151 661 LINE",
"175 685 LINE",
"175 356 LINE",
"151 379 LINE"
);
}
);
width = 709;
}
);
leftKerningGroup = H;
leftMetricsKey = "=H";
rightKerningGroup = R;
unicode = 0052;
},
{
color = 3;
glyphname = S;
lastChange = "2019-01-16 19:03:22 +0000";
layers = (
{
layerId = "3F9681A4-5725-441D-B9D2-8C7C614AC445";
paths = (
{
closed = 1;
nodes = (
"524 -20 OFFCURVE",
"638 67 OFFCURVE",
"638 212 CURVE SMOOTH",
"638 309 OFFCURVE",
"579 385 OFFCURVE",
"440 405 CURVE SMOOTH",
"296 426 LINE SMOOTH",
"195 440 OFFCURVE",
"157 482 OFFCURVE",
"157 540 CURVE SMOOTH",
"157 625 OFFCURVE",
"229 681 OFFCURVE",
"332 681 CURVE SMOOTH",
"467 681 OFFCURVE",
"542 596 OFFCURVE",
"542 480 CURVE",
"635 480 LINE",
"635 659 OFFCURVE",
"504 760 OFFCURVE",
"336 760 CURVE SMOOTH",
"156 760 OFFCURVE",
"56 652 OFFCURVE",
"56 537 CURVE SMOOTH",
"56 448 OFFCURVE",
"121 365 OFFCURVE",
"280 342 CURVE SMOOTH",
"422 322 LINE SMOOTH",
"512 310 OFFCURVE",
"543 263 OFFCURVE",
"543 212 CURVE SMOOTH",
"543 124 OFFCURVE",
"469 62 OFFCURVE",
"365 62 CURVE SMOOTH",
"253 62 OFFCURVE",
"153 131 OFFCURVE",
"153 264 CURVE",
"62 264 LINE",
"62 102 OFFCURVE",
"173 -20 OFFCURVE",
"358 -20 CURVE SMOOTH"
);
}
);
width = 718;
}
);
leftKerningGroup = S;
rightKerningGroup = S;
unicode = 0053;
},
{
color = 7;
glyphname = T;
lastChange = "2019-01-16 21:46:25 +0000";
layers = (
{
layerId = "3F9681A4-5725-441D-B9D2-8C7C614AC445";
paths = (
{
closed = 1;
nodes = (
"334 0 LINE",
"334 679 LINE",
"311 656 LINE",
"550 656 LINE",
"550 740 LINE",
"20 740 LINE",
"20 656 LINE",
"259 656 LINE",
"236 679 LINE",
"236 0 LINE"
);
}
);
width = 570;
}
);
leftKerningGroup = T;
rightKerningGroup = T;
unicode = 0054;
},
{
color = 3;
glyphname = U;
lastChange = "2019-01-16 19:03:22 +0000";
layers = (
{
layerId = "3F9681A4-5725-441D-B9D2-8C7C614AC445";
paths = (
{
closed = 1;
nodes = (
"176 145 OFFCURVE",
"249 61 OFFCURVE",
"379 61 CURVE SMOOTH",
"513 61 OFFCURVE",
"577 145 OFFCURVE",
"577 295 CURVE SMOOTH",
"577 740 LINE",
"670 740 LINE",
"670 285 LINE SMOOTH",
"670 57 OFFCURVE",
"544 -20 OFFCURVE",
"379 -20 CURVE SMOOTH",
"217 -20 OFFCURVE",
"83 57 OFFCURVE",
"83 285 CURVE SMOOTH",
"83 740 LINE",
"176 740 LINE",
"176 295 LINE SMOOTH"
);
}
);
width = 790;
}
);
leftKerningGroup = U;
rightKerningGroup = U;
unicode = 0055;
},
{
color = 3;
glyphname = V;
lastChange = "2019-01-16 19:03:22 +0000";
layers = (
{
layerId = "3F9681A4-5725-441D-B9D2-8C7C614AC445";
paths = (
{
closed = 1;
nodes = (
"295 0 LINE",
"411 0 LINE",
"690 740 LINE",
"586 740 LINE",
"368 116 LINE SMOOTH",
"361 96 OFFCURVE",
"358 88 OFFCURVE",
"355 67 CURVE",
"351 67 LINE",
"348 88 OFFCURVE",
"345 96 OFFCURVE",
"338 116 CURVE SMOOTH",
"120 740 LINE",
"16 740 LINE"
);
}
);
width = 748;
}
);
leftKerningGroup = V;
rightKerningGroup = V;
unicode = 0056;
},
{
color = 3;
glyphname = W;
lastChange = "2019-01-16 19:03:22 +0000";
layers = (
{
layerId = "3F9681A4-5725-441D-B9D2-8C7C614AC445";
paths = (
{
closed = 1;
nodes = (
"234 0 LINE",
"349 0 LINE",
"502 585 LINE SMOOTH",
"506 599 OFFCURVE",
"509 610 OFFCURVE",
"510 625 CURVE",
"512 625 LINE",
"513 610 OFFCURVE",
"516 599 OFFCURVE",
"520 585 CURVE SMOOTH",
"674 0 LINE",
"789 0 LINE",
"1002 740 LINE",
"907 740 LINE",
"746 143 LINE SMOOTH",
"741 121 OFFCURVE",
"736 112 OFFCURVE",
"733 89 CURVE",
"730 89 LINE",
"727 112 OFFCURVE",
"722 121 OFFCURVE",
"717 143 CURVE SMOOTH",
"562 740 LINE",
"460 740 LINE",
"306 143 LINE SMOOTH",
"300 121 OFFCURVE",
"296 112 OFFCURVE",
"293 89 CURVE",
"289 89 LINE",
"287 112 OFFCURVE",
"282 121 OFFCURVE",
"276 143 CURVE SMOOTH",
"115 740 LINE",
"21 740 LINE"
);
}
);
width = 1090;
}
);
leftKerningGroup = V;
rightKerningGroup = V;
unicode = 0057;
},
{
color = 3;
glyphname = Z;
lastChange = "2019-01-16 19:03:22 +0000";
layers = (
{
layerId = "3F9681A4-5725-441D-B9D2-8C7C614AC445";
paths = (
{
closed = 1;
nodes = (
"619 0 LINE",
"619 80 LINE",
"193 80 LINE SMOOTH",
"177 80 OFFCURVE",
"159 79 OFFCURVE",
"147 75 CURVE",
"145 79 LINE",
"156 86 OFFCURVE",
"167 96 OFFCURVE",
"175 105 CURVE SMOOTH",
"599 654 LINE",
"599 740 LINE",
"64 740 LINE",
"64 659 LINE",
"447 659 LINE SMOOTH",
"463 659 OFFCURVE",
"482 660 OFFCURVE",
"494 663 CURVE",
"496 660 LINE",
"484 652 OFFCURVE",
"473 642 OFFCURVE",
"466 633 CURVE SMOOTH",
"44 85 LINE",
"44 0 LINE"
);
}
);
width = 696;
}
);
leftKerningGroup = Z;
rightKerningGroup = Z;
unicode = 005A;
},
{
color = 7;
glyphname = a;
lastChange = "2019-01-16 19:46:42 +0000";
layers = (
{
background = {
paths = (
{
closed = 1;
nodes = (
"130 98 OFFCURVE",
"186 58 OFFCURVE",
"253 58 CURVE SMOOTH",
"343 58 OFFCURVE",
"418 118 OFFCURVE",
"418 222 CURVE SMOOTH",
"418 319 LINE",
"442 298 LINE",
"338 293 LINE SMOOTH",
"185 284 OFFCURVE",
"130 236 OFFCURVE",
"130 166 CURVE SMOOTH"
);
},
{
closed = 1;
nodes = (
"418 84 LINE",
"377 21 OFFCURVE",
"310 -15 OFFCURVE",
"234 -15 CURVE SMOOTH",
"121 -15 OFFCURVE",
"42 60 OFFCURVE",
"42 151 CURVE SMOOTH",
"42 296 OFFCURVE",
"166 354 OFFCURVE",
"321 359 CURVE SMOOTH",
"436 364 LINE",
"418 343 LINE",
"418 382 LINE SMOOTH",
"418 472 OFFCURVE",
"365 522 OFFCURVE",
"282 522 CURVE SMOOTH",
"203 522 OFFCURVE",
"142 475 OFFCURVE",
"142 381 CURVE",
"60 381 LINE",
"60 514 OFFCURVE",
"163 595 OFFCURVE",
"286 595 CURVE SMOOTH",
"432 595 OFFCURVE",
"508 504 OFFCURVE",
"508 371 CURVE SMOOTH",
"508 174 LINE SMOOTH",
"508 109 OFFCURVE",
"513 59 OFFCURVE",
"521 -1 CURVE",
"432 -1 LINE",
"427 24 OFFCURVE",
"424 54 OFFCURVE",
"422 84 CURVE"
);
}
);
};
layerId = "3F9681A4-5725-441D-B9D2-8C7C614AC445";
paths = (
{
closed = 1;
nodes = (
"140 97 OFFCURVE",
"187 63 OFFCURVE",
"253 63 CURVE SMOOTH",
"343 63 OFFCURVE",
"418 128 OFFCURVE",
"418 238 CURVE SMOOTH",
"418 310 LINE",
"442 280 LINE",
"338 275 LINE SMOOTH",
"190 268 OFFCURVE",
"140 226 OFFCURVE",
"140 161 CURVE SMOOTH"
);
},
{
closed = 1;
nodes = (
"406 94 LINE",
"371 25 OFFCURVE",
"305 -15 OFFCURVE",
"234 -15 CURVE SMOOTH",
"121 -15 OFFCURVE",
"45 55 OFFCURVE",
"45 156 CURVE SMOOTH",
"45 284 OFFCURVE",
"146 342 OFFCURVE",
"321 350 CURVE SMOOTH",
"436 355 LINE",
"418 334 LINE",
"418 372 LINE SMOOTH",
"418 462 OFFCURVE",
"380 509 OFFCURVE",
"290 509 CURVE SMOOTH",
"211 509 OFFCURVE",
"154 473 OFFCURVE",
"154 394 CURVE",
"60 394 LINE",
"60 512 OFFCURVE",
"160 585 OFFCURVE",
"293 585 CURVE SMOOTH",
"449 585 OFFCURVE",
"514 494 OFFCURVE",
"514 361 CURVE SMOOTH",
"514 -1 LINE",
"420 -1 LINE",
"420 94 LINE"
);
}
);
width = 570;
}
);
leftKerningGroup = a;
rightKerningGroup = a;
unicode = 0061;
},
{
color = 7;
glyphname = b;
lastChange = "2019-01-16 20:11:41 +0000";
layers = (
{
background = {
paths = (
{
closed = 1;
nodes = (
"199 89 LINE",
"235 22 OFFCURVE",
"310 -15 OFFCURVE",
"382 -15 CURVE SMOOTH",
"542 -15 OFFCURVE",
"633 118 OFFCURVE",
"633 292 CURVE SMOOTH",
"633 463 OFFCURVE",
"542 595 OFFCURVE",
"387 595 CURVE SMOOTH",
"309 595 OFFCURVE",
"244 557 OFFCURVE",
"199 488 CURVE",
"196 488 LINE",
"196 800 LINE",
"105 800 LINE",
"105 -1 LINE",
"196 -1 LINE",
"196 89 LINE"
);
},
{
closed = 1;
nodes = (
"189 433 OFFCURVE",
"260 523 OFFCURVE",
"363 523 CURVE SMOOTH",
"462 523 OFFCURVE",
"540 433 OFFCURVE",
"540 291 CURVE SMOOTH",
"540 143 OFFCURVE",
"465 56 OFFCURVE",
"363 56 CURVE SMOOTH",
"260 56 OFFCURVE",
"189 147 OFFCURVE",
"189 291 CURVE SMOOTH"
);
}
);
};
layerId = "3F9681A4-5725-441D-B9D2-8C7C614AC445";
paths = (
{
closed = 1;
nodes = (
"55 0 LINE",
"151 0 LINE",
"151 78 LINE",
"165 78 LINE",
"201 20 OFFCURVE",
"245 -15 OFFCURVE",
"316 -15 CURVE SMOOTH",
"437 -15 OFFCURVE",
"538 97 OFFCURVE",
"538 283 CURVE SMOOTH",
"538 471 OFFCURVE",
"438 584 OFFCURVE",
"316 584 CURVE SMOOTH",
"245 584 OFFCURVE",
"200 549 OFFCURVE",
"165 490 CURVE",
"151 490 LINE",
"151 800 LINE",
"55 800 LINE"
);
},
{
closed = 1;
nodes = (
"140 414 OFFCURVE",
"193 504 OFFCURVE",
"286 504 CURVE SMOOTH",
"377 504 OFFCURVE",
"438 415 OFFCURVE",
"438 283 CURVE SMOOTH",
"438 153 OFFCURVE",
"377 65 OFFCURVE",
"286 65 CURVE SMOOTH",
"193 65 OFFCURVE",
"140 154 OFFCURVE",
"140 283 CURVE SMOOTH"
);
}
);
width = 570;
}
);
leftKerningGroup = l;
leftMetricsKey = p;
rightKerningGroup = o;
rightMetricsKey = p;
unicode = 0062;
},
{
color = 7;
glyphname = c;
lastChange = "2019-01-16 20:52:40 +0000";
layers = (
{
background = {
paths = (
{
closed = 1;
nodes = (
"558 357 LINE",
"549 500 OFFCURVE",
"450 595 OFFCURVE",
"316 595 CURVE SMOOTH",
"144 595 OFFCURVE",
"44 473 OFFCURVE",
"44 292 CURVE SMOOTH",
"44 109 OFFCURVE",
"146 -15 OFFCURVE",
"313 -15 CURVE SMOOTH",
"452 -15 OFFCURVE",
"550 73 OFFCURVE",
"558 206 CURVE",
"476 206 LINE",
"468 123 OFFCURVE",
"409 57 OFFCURVE",
"312 57 CURVE SMOOTH",
"198 57 OFFCURVE",
"137 156 OFFCURVE",
"137 294 CURVE SMOOTH",
"137 441 OFFCURVE",
"199 523 OFFCURVE",
"316 523 CURVE SMOOTH",
"393 523 OFFCURVE",
"469 471 OFFCURVE",
"476 357 CURVE"
);
}
);
};
layerId = "3F9681A4-5725-441D-B9D2-8C7C614AC445";
paths = (
{
closed = 1;
nodes = (
"442 168 LINE",
"428 105 OFFCURVE",
"371 66 OFFCURVE",
"305 66 CURVE SMOOTH",
"203 66 OFFCURVE",
"132 159 OFFCURVE",
"132 287 CURVE SMOOTH",
"132 413 OFFCURVE",
"203 505 OFFCURVE",
"305 505 CURVE SMOOTH",
"374 505 OFFCURVE",
"433 463 OFFCURVE",
"446 397 CURVE",
"540 397 LINE",
"525 511 OFFCURVE",
"423 585 OFFCURVE",
"310 585 CURVE SMOOTH",
"144 585 OFFCURVE",
"32 459 OFFCURVE",
"32 287 CURVE SMOOTH",
"32 113 OFFCURVE",
"144 -14 OFFCURVE",
"310 -14 CURVE SMOOTH",
"421 -14 OFFCURVE",
"521 57 OFFCURVE",
"538 168 CURVE"
);
}
);
width = 570;
}
);
leftKerningGroup = o;
leftMetricsKey = "=o";
rightKerningGroup = c;
unicode = 0063;
},
{
color = 7;
glyphname = d;
lastChange = "2019-01-16 20:11:41 +0000";
layers = (
{
background = {
paths = (
{
closed = 1;
nodes = (
"414 -1 LINE",
"502 -1 LINE",
"502 800 LINE",
"411 800 LINE",
"411 488 LINE",
"407 488 LINE",
"363 557 OFFCURVE",
"298 595 OFFCURVE",
"220 595 CURVE SMOOTH",
"64 595 OFFCURVE",
"-26 464 OFFCURVE",
"-26 292 CURVE SMOOTH",
"-26 118 OFFCURVE",
"64 -15 OFFCURVE",
"224 -15 CURVE SMOOTH",
"298 -15 OFFCURVE",
"374 24 OFFCURVE",
"410 94 CURVE",
"414 94 LINE"
);
},
{
closed = 1;
nodes = (
"418 147 OFFCURVE",
"346 56 OFFCURVE",
"243 56 CURVE SMOOTH",
"141 56 OFFCURVE",
"67 143 OFFCURVE",
"67 291 CURVE SMOOTH",
"67 433 OFFCURVE",
"144 523 OFFCURVE",
"243 523 CURVE SMOOTH",
"346 523 OFFCURVE",
"418 433 OFFCURVE",
"418 291 CURVE SMOOTH"
);
}
);
};
layerId = "3F9681A4-5725-441D-B9D2-8C7C614AC445";
paths = (
{
closed = 1;
nodes = (
"419 800 LINE",
"419 490 LINE",
"405 490 LINE",
"370 549 OFFCURVE",
"325 584 OFFCURVE",
"254 584 CURVE SMOOTH",
"132 584 OFFCURVE",
"32 471 OFFCURVE",
"32 283 CURVE SMOOTH",
"32 97 OFFCURVE",
"133 -15 OFFCURVE",
"254 -15 CURVE SMOOTH",
"325 -15 OFFCURVE",
"369 20 OFFCURVE",
"405 78 CURVE",
"419 78 LINE",
"419 0 LINE",
"515 0 LINE",
"515 800 LINE"
);
},
{
closed = 1;
nodes = (
"430 154 OFFCURVE",
"377 65 OFFCURVE",
"284 65 CURVE SMOOTH",
"193 65 OFFCURVE",
"132 153 OFFCURVE",
"132 283 CURVE SMOOTH",
"132 415 OFFCURVE",
"193 504 OFFCURVE",
"284 504 CURVE SMOOTH",
"377 504 OFFCURVE",
"430 414 OFFCURVE",
"430 283 CURVE SMOOTH"
);
}
);
width = 570;
}
);
leftKerningGroup = o;
rightKerningGroup = l;
unicode = 0064;
},
{
color = 7;
glyphname = e;
lastChange = "2019-01-16 20:41:12 +0000";
layers = (
{
background = {
paths = (
{
closed = 1;
nodes = (
"572 287 LINE",
"596 486 OFFCURVE",
"492 625 OFFCURVE",
"322 625 CURVE SMOOTH",
"141 625 OFFCURVE",
"36 497 OFFCURVE",
"36 307 CURVE SMOOTH",
"36 115 OFFCURVE",
"143 -15 OFFCURVE",
"319 -15 CURVE SMOOTH",
"465 -15 OFFCURVE",
"565 76 OFFCURVE",
"576 197 CURVE",
"480 197 LINE",
"469 123 OFFCURVE",
"413 61 OFFCURVE",
"318 61 CURVE SMOOTH",
"198 61 OFFCURVE",
"134 164 OFFCURVE",
"134 309 CURVE SMOOTH",
"134 464 OFFCURVE",
"199 550 OFFCURVE",
"322 550 CURVE SMOOTH",
"414 550 OFFCURVE",
"492 476 OFFCURVE",
"478 313 CURVE",
"520 369 LINE",
"116 369 LINE",
"113 287 LINE"
);
}
);
};
layerId = "3F9681A4-5725-441D-B9D2-8C7C614AC445";
paths = (
{
closed = 1;
nodes = (
"130 323 LINE",
"132 434 OFFCURVE",
"206 505 OFFCURVE",
"295 505 CURVE SMOOTH",
"386 505 OFFCURVE",
"448 419 OFFCURVE",
"446 306 CURVE",
"489 341 LINE",
"115 341 LINE",
"112 264 LINE",
"545 264 LINE",
"545 290 LINE SMOOTH",
"545 451 OFFCURVE",
"451 585 OFFCURVE",
"295 585 CURVE SMOOTH",
"143 585 OFFCURVE",
"32 467 OFFCURVE",
"32 284 CURVE SMOOTH",
"32 99 OFFCURVE",
"145 -15 OFFCURVE",
"305 -15 CURVE SMOOTH",
"424 -15 OFFCURVE",
"512 61 OFFCURVE",
"538 168 CURVE",
"440 168 LINE",
"420 103 OFFCURVE",
"375 65 OFFCURVE",
"305 65 CURVE SMOOTH",
"204 65 OFFCURVE",
"126 145 OFFCURVE",
"128 288 CURVE"
);
}
);
width = 570;
}
);
leftKerningGroup = o;
leftMetricsKey = o;
rightKerningGroup = e;
unicode = 0065;
},
{
color = 7;
glyphname = f;
lastChange = "2019-01-16 19:46:50 +0000";
layers = (
{
background = {
paths = (
{
closed = 1;
nodes = (
"141 502 LINE",
"118 525 LINE",
"118 0 LINE",
"207 0 LINE",
"207 525 LINE",
"184 502 LINE",
"341 502 LINE",
"341 580 LINE",
"184 580 LINE",
"207 556 LINE",
"207 643 LINE SMOOTH",
"207 705 OFFCURVE",
"223 722 OFFCURVE",
"283 722 CURVE SMOOTH",
"373 722 LINE",
"373 800 LINE",
"268 800 LINE SMOOTH",
"171 800 OFFCURVE",
"118 742 OFFCURVE",
"118 640 CURVE SMOOTH",
"118 556 LINE",
"141 580 LINE",
"20 580 LINE",
"20 502 LINE"
);
}
);
};
layerId = "3F9681A4-5725-441D-B9D2-8C7C614AC445";
paths = (
{
closed = 1;
nodes = (
"20 490 LINE",
"139 490 LINE",
"114 515 LINE",
"114 0 LINE",
"210 0 LINE",
"210 515 LINE",
"185 490 LINE",
"341 490 LINE",
"341 570 LINE",
"185 570 LINE",
"210 545 LINE",
"210 659 LINE SMOOTH",
"210 708 OFFCURVE",
"222 720 OFFCURVE",
"270 720 CURVE SMOOTH",
"375 720 LINE",
"375 800 LINE",
"234 800 LINE SMOOTH",
"148 800 OFFCURVE",
"114 764 OFFCURVE",
"114 671 CURVE SMOOTH",
"114 545 LINE",
"139 570 LINE",
"20 570 LINE"
);
}
);
width = 380;
}
);
leftKerningGroup = f;
leftMetricsKey = "=t";
rightKerningGroup = f;
unicode = 0066;
},
{
color = 7;
glyphname = g;
lastChange = "2019-01-16 20:20:03 +0000";
layers = (
{
background = {
paths = (
{
closed = 1;
nodes = (
"468 -200 OFFCURVE",
"573 -116 OFFCURVE",
"573 32 CURVE SMOOTH",
"573 580 LINE",
"477 580 LINE",
"477 512 LINE",
"473 512 LINE",
"428 564 OFFCURVE",
"366 595 OFFCURVE",
"287 595 CURVE SMOOTH",
"144 595 OFFCURVE",
"35 481 OFFCURVE",
"35 322 CURVE SMOOTH",
"35 150 OFFCURVE",
"143 26 OFFCURVE",
"287 26 CURVE SMOOTH",
"366 26 OFFCURVE",
"429 57 OFFCURVE",
"473 110 CURVE",
"477 110 LINE",
"477 11 LINE SMOOTH",
"477 -60 OFFCURVE",
"419 -120 OFFCURVE",
"309 -120 CURVE SMOOTH",
"225 -120 OFFCURVE",
"157 -65 OFFCURVE",
"155 -11 CURVE",
"65 -11 LINE",
"65 -106 OFFCURVE",
"155 -200 OFFCURVE",
"309 -200 CURVE SMOOTH"
);
},
{
closed = 1;
nodes = (
"488 197 OFFCURVE",
"418 106 OFFCURVE",
"307 106 CURVE SMOOTH",
"202 106 OFFCURVE",
"135 196 OFFCURVE",
"135 322 CURVE SMOOTH",
"135 435 OFFCURVE",
"202 515 OFFCURVE",
"307 515 CURVE SMOOTH",
"418 515 OFFCURVE",
"488 434 OFFCURVE",
"488 322 CURVE SMOOTH"
);
}
);
};
layerId = "3F9681A4-5725-441D-B9D2-8C7C614AC445";
paths = (
{
closed = 1;
nodes = (
"47 -106 OFFCURVE",
"132 -200 OFFCURVE",
"274 -200 CURVE SMOOTH",
"421 -200 OFFCURVE",
"515 -116 OFFCURVE",
"515 32 CURVE SMOOTH",
"515 570 LINE",
"419 570 LINE",
"419 492 LINE",
"405 492 LINE",
"369 550 OFFCURVE",
"325 585 OFFCURVE",
"254 585 CURVE SMOOTH",
"133 585 OFFCURVE",
"32 481 OFFCURVE",
"32 307 CURVE SMOOTH",
"32 131 OFFCURVE",
"132 26 OFFCURVE",
"254 26 CURVE SMOOTH",
"325 26 OFFCURVE",
"370 61 OFFCURVE",
"405 120 CURVE",
"419 120 LINE",
"419 11 LINE SMOOTH",
"419 -60 OFFCURVE",
"371 -120 OFFCURVE",
"274 -120 CURVE SMOOTH",
"201 -120 OFFCURVE",
"139 -75 OFFCURVE",
"137 -11 CURVE",
"47 -11 LINE"
);
},
{
closed = 1;
nodes = (
"132 425 OFFCURVE",
"193 505 OFFCURVE",
"284 505 CURVE SMOOTH",
"377 505 OFFCURVE",
"430 424 OFFCURVE",
"430 307 CURVE SMOOTH",
"430 188 OFFCURVE",
"377 106 OFFCURVE",
"284 106 CURVE SMOOTH",
"193 106 OFFCURVE",
"132 187 OFFCURVE",
"132 307 CURVE SMOOTH"
);
}
);
width = 570;
}
);
leftKerningGroup = o;
rightKerningGroup = g;
unicode = 0067;
},
{
color = 7;
glyphname = h;
lastChange = "2019-01-16 19:23:51 +0000";
layers = (
{
layerId = "3F9681A4-5725-441D-B9D2-8C7C614AC445";
paths = (
{
closed = 1;
nodes = (
"213 554 OFFCURVE",
"262 585 OFFCURVE",
"335 585 CURVE SMOOTH",
"432 585 OFFCURVE",
"515 497 OFFCURVE",
"515 385 CURVE SMOOTH",
"515 0 LINE",
"419 0 LINE",
"419 347 LINE SMOOTH",
"419 441 OFFCURVE",
"376 499 OFFCURVE",
"295 499 CURVE SMOOTH",
"217 499 OFFCURVE",
"156 431 OFFCURVE",
"156 351 CURVE SMOOTH",
"156 0 LINE",
"60 0 LINE",
"60 800 LINE",
"154 800 LINE",
"154 477 LINE",
"167 477 LINE"
);
}
);
width = 570;
}
);
leftKerningGroup = l;
leftMetricsKey = "=n";
rightKerningGroup = n;
rightMetricsKey = "=n";
unicode = 0068;
},
{
color = 7;
glyphname = i;
lastChange = "2019-01-16 19:22:30 +0000";
layers = (
{
layerId = "3F9681A4-5725-441D-B9D2-8C7C614AC445";
paths = (
{
closed = 1;
nodes = (
"94 0 LINE",
"190 0 LINE",
"190 570 LINE",
"94 570 LINE"
);
},
{
closed = 1;
nodes = (
"77 675 LINE",
"207 675 LINE",
"207 800 LINE",
"77 800 LINE"
);
}
);
width = 285;
}
);
leftKerningGroup = i;
rightKerningGroup = i;
unicode = 0069;
},
{
color = 4;
glyphname = idotless;
lastChange = "2019-01-16 19:03:22 +0000";
layers = (
{
layerId = "3F9681A4-5725-441D-B9D2-8C7C614AC445";
paths = (
{
closed = 1;
nodes = (
"65 0 LINE",
"159 0 LINE",
"159 610 LINE",
"65 610 LINE"
);
}
);
width = 224;
}
);
leftKerningGroup = i;
leftMetricsKey = "=i";
rightKerningGroup = i;
rightMetricsKey = "=i";
unicode = 0131;
},
{
color = 7;
glyphname = j;
lastChange = "2019-01-16 19:23:21 +0000";
layers = (
{
background = {
paths = (
{
closed = 1;
nodes = (
"79 -31 LINE SMOOTH",
"79 -96 OFFCURVE",
"63 -114 OFFCURVE",
"-1 -114 CURVE SMOOTH",
"-75 -114 LINE",
"-75 -200 LINE",
"15 -200 LINE SMOOTH",
"117 -200 OFFCURVE",
"174 -118 OFFCURVE",
"174 29 CURVE SMOOTH",
"174 610 LINE",
"79 610 LINE"
);
}
);
};
layerId = "3F9681A4-5725-441D-B9D2-8C7C614AC445";
paths = (
{
closed = 1;
nodes = (
"70 -200 LINE SMOOTH",
"156 -200 OFFCURVE",
"190 -164 OFFCURVE",
"190 -71 CURVE SMOOTH",
"190 580 LINE",
"94 580 LINE",
"94 -59 LINE SMOOTH",
"94 -108 OFFCURVE",
"82 -120 OFFCURVE",
"34 -120 CURVE SMOOTH",
"-60 -120 LINE",
"-60 -200 LINE"
);
},
{
closed = 1;
nodes = (
"77 675 LINE",
"207 675 LINE",
"207 800 LINE",
"77 800 LINE"
);
}
);
width = 285;
}
);
leftKerningGroup = j;
rightKerningGroup = j;
rightMetricsKey = i;
unicode = 006A;
},
{
color = 7;
glyphname = k;
lastChange = "2019-01-16 20:51:23 +0000";
layers = (
{
background = {
paths = (
{
closed = 1;
nodes = (
"162 0 LINE",
"162 198 LINE",
"133 118 LINE",
"278 293 LINE",
"282 293 LINE",
"461 0 LINE",
"573 0 LINE",
"344 362 LINE",
"344 366 LINE",
"551 610 LINE",
"438 610 LINE",
"166 281 LINE",
"162 281 LINE",
"162 800 LINE",
"67 800 LINE",
"67 0 LINE"
);
}
);
};
layerId = "3F9681A4-5725-441D-B9D2-8C7C614AC445";
paths = (
{
closed = 1;
nodes = (
"156 0 LINE",
"156 188 LINE",
"131 102 LINE",
"269 271 LINE",
"283 271 LINE",
"441 0 LINE",
"547 0 LINE",
"337 338 LINE",
"337 352 LINE",
"513 570 LINE",
"400 570 LINE",
"169 277 LINE",
"156 277 LINE",
"156 800 LINE",
"60 800 LINE",
"60 0 LINE"
);
}
);
width = 570;
}
);
leftKerningGroup = l;
leftMetricsKey = h;
rightKerningGroup = k;
unicode = 006B;
},
{
color = 7;
glyphname = l;
lastChange = "2019-01-16 21:29:46 +0000";
layers = (
{
layerId = "3F9681A4-5725-441D-B9D2-8C7C614AC445";
paths = (
{
closed = 1;
nodes = (
"270 80 LINE",
"226 80 LINE SMOOTH",
"178 80 OFFCURVE",
"166 92 OFFCURVE",
"166 141 CURVE SMOOTH",
"166 800 LINE",
"70 800 LINE",
"70 129 LINE SMOOTH",
"70 36 OFFCURVE",
"104 0 OFFCURVE",
"190 0 CURVE SMOOTH",
"270 0 LINE"
);
}
);
width = 285;
}
);
leftKerningGroup = l;
rightKerningGroup = l;
unicode = 006C;
},
{
color = 7;
glyphname = m;
lastChange = "2019-01-16 20:32:56 +0000";
layers = (
{
background = {
paths = (
{
closed = 1;
nodes = (
"75 580 LINE",
"169 580 LINE",
"169 497 LINE",
"172 497 LINE",
"222 567 OFFCURVE",
"272 595 OFFCURVE",
"347 595 CURVE SMOOTH",
"417 595 OFFCURVE",
"477 555 OFFCURVE",
"508 494 CURVE",
"512 480 LINE",
"514.933 480 LINE",
"570 562 OFFCURVE",
"625 595 OFFCURVE",
"708 595 CURVE SMOOTH",
"811 595 OFFCURVE",
"893 507 OFFCURVE",
"893 395 CURVE SMOOTH",
"893 0 LINE",
"797 0 LINE",
"797 357 LINE SMOOTH",
"797 451 OFFCURVE",
"755 509 OFFCURVE",
"676 509 CURVE SMOOTH",
"589 509 OFFCURVE",
"532 441 OFFCURVE",
"532 361 CURVE SMOOTH",
"532 0 LINE",
"436 0 LINE",
"436 357 LINE SMOOTH",
"436 451 OFFCURVE",
"394 509 OFFCURVE",
"315 509 CURVE SMOOTH",
"228 509 OFFCURVE",
"171 441 OFFCURVE",
"171 361 CURVE SMOOTH",
"171 0 LINE",
"75 0 LINE"
);
}
);
};
layerId = "3F9681A4-5725-441D-B9D2-8C7C614AC445";
paths = (
{
closed = 1;
nodes = (
"60 570 LINE",
"154 570 LINE",
"154 477 LINE",
"167 477 LINE",
"208 554 OFFCURVE",
"251 585 OFFCURVE",
"316 585 CURVE SMOOTH",
"378.959 585 OFFCURVE",
"435.11 538.915 OFFCURVE",
"461.335 471 CURVE",
"480 471 LINE",
"524 552 OFFCURVE",
"570 585 OFFCURVE",
"639 585 CURVE SMOOTH",
"726 585 OFFCURVE",
"800 497 OFFCURVE",
"800 385 CURVE SMOOTH",
"800 0 LINE",
"704 0 LINE",
"704 347 LINE SMOOTH",
"704 441 OFFCURVE",
"668 499 OFFCURVE",
"599 499 CURVE SMOOTH",
"532 499 OFFCURVE",
"478 431 OFFCURVE",
"478 351 CURVE SMOOTH",
"478 0 LINE",
"381 0 LINE",
"381 347 LINE SMOOTH",
"381 441 OFFCURVE",
"345 499 OFFCURVE",
"276 499 CURVE SMOOTH",
"209 499 OFFCURVE",
"156 431 OFFCURVE",
"156 351 CURVE SMOOTH",
"156 0 LINE",
"60 0 LINE"
);
}
);
width = 855;
}
);
leftKerningGroup = i;
leftMetricsKey = "=n";
rightKerningGroup = n;
rightMetricsKey = "=n";
unicode = 006D;
},
{
color = 7;
glyphname = n;
lastChange = "2019-01-16 19:14:05 +0000";
layers = (
{
background = {
paths = (
{
closed = 1;
nodes = (
"212 587 OFFCURVE",
"294 625 OFFCURVE",
"376 625 CURVE SMOOTH",
"514 625 OFFCURVE",
"579 527 OFFCURVE",
"579 384 CURVE SMOOTH",
"579 0 LINE",
"485 0 LINE",
"485 366 LINE SMOOTH",
"485 484 OFFCURVE",
"445 541 OFFCURVE",
"349 541 CURVE SMOOTH",
"268 541 OFFCURVE",
"176 482 OFFCURVE",
"176 325 CURVE SMOOTH",
"176 0 LINE",
"82 0 LINE",
"82 610 LINE",
"176 610 LINE",
"176 499 LINE",
"156 487 LINE"
);
}
);
};
layerId = "3F9681A4-5725-441D-B9D2-8C7C614AC445";
paths = (
{
closed = 1;
nodes = (
"213 554 OFFCURVE",
"262 585 OFFCURVE",
"335 585 CURVE SMOOTH",
"432 585 OFFCURVE",
"515 497 OFFCURVE",
"515 385 CURVE SMOOTH",
"515 0 LINE",
"419 0 LINE",
"419 347 LINE SMOOTH",
"419 441 OFFCURVE",
"376 499 OFFCURVE",
"295 499 CURVE SMOOTH",
"217 499 OFFCURVE",
"156 431 OFFCURVE",
"156 351 CURVE SMOOTH",
"156 0 LINE",
"60 0 LINE",
"60 570 LINE",
"154 570 LINE",
"154 477 LINE",
"167 477 LINE"
);
}
);
width = 570;
}
);
leftKerningGroup = i;
rightKerningGroup = n;
unicode = 006E;
},
{
color = 7;
glyphname = o;
lastChange = "2019-01-16 20:09:20 +0000";
layers = (
{
background = {
paths = (
{
closed = 1;
nodes = (
"492 -14 OFFCURVE",
"608 114 OFFCURVE",
"608 292 CURVE SMOOTH",
"608 468 OFFCURVE",
"491 595 OFFCURVE",
"316 595 CURVE SMOOTH",
"142 595 OFFCURVE",
"25 467 OFFCURVE",
"25 292 CURVE SMOOTH",
"25 115 OFFCURVE",
"142 -14 OFFCURVE",
"316 -14 CURVE SMOOTH"
);
},
{
closed = 1;
nodes = (
"201 66 OFFCURVE",
"125 161 OFFCURVE",
"125 292 CURVE SMOOTH",
"125 421 OFFCURVE",
"201 515 OFFCURVE",
"316 515 CURVE SMOOTH",
"433 515 OFFCURVE",
"508 422 OFFCURVE",
"508 292 CURVE SMOOTH",
"508 160 OFFCURVE",
"433 66 OFFCURVE",
"316 66 CURVE SMOOTH"
);
}
);
};
layerId = "3F9681A4-5725-441D-B9D2-8C7C614AC445";
paths = (
{
closed = 1;
nodes = (
"438 -14 OFFCURVE",
"538 112 OFFCURVE",
"538 287 CURVE SMOOTH",
"538 460 OFFCURVE",
"438 585 OFFCURVE",
"285 585 CURVE SMOOTH",
"132 585 OFFCURVE",
"32 459 OFFCURVE",
"32 287 CURVE SMOOTH",
"32 113 OFFCURVE",
"132 -14 OFFCURVE",
"285 -14 CURVE SMOOTH"
);
},
{
closed = 1;
nodes = (
"181 66 OFFCURVE",
"132 159 OFFCURVE",
"132 287 CURVE SMOOTH",
"132 413 OFFCURVE",
"181 505 OFFCURVE",
"285 505 CURVE SMOOTH",
"391 505 OFFCURVE",
"438 414 OFFCURVE",
"438 287 CURVE SMOOTH",
"438 158 OFFCURVE",
"391 66 OFFCURVE",
"285 66 CURVE SMOOTH"
);
}
);
width = 570;
}
);
leftKerningGroup = o;
rightKerningGroup = o;
unicode = 006F;
},
{
color = 7;
glyphname = p;
lastChange = "2019-01-16 20:08:55 +0000";
layers = (
{
background = {
paths = (
{
closed = 1;
nodes = (
"60 -200 LINE",
"155 -200 LINE",
"155 120 LINE",
"139 96 LINE",
"182 23 OFFCURVE",
"249 -15 OFFCURVE",
"341 -15 CURVE SMOOTH",
"519 -15 OFFCURVE",
"614 125 OFFCURVE",
"614 307 CURVE SMOOTH",
"614 487 OFFCURVE",
"519 625 OFFCURVE",
"358 625 CURVE SMOOTH",
"260 625 OFFCURVE",
"180 575 OFFCURVE",
"134 487 CURVE",
"155 499 LINE",
"155 610 LINE",
"60 610 LINE"
);
},
{
closed = 1;
nodes = (
"149 456 OFFCURVE",
"224 550 OFFCURVE",
"331 550 CURVE SMOOTH",
"435 550 OFFCURVE",
"514 456 OFFCURVE",
"514 307 CURVE SMOOTH",
"514 155 OFFCURVE",
"435 60 OFFCURVE",
"331 60 CURVE SMOOTH",
"224 60 OFFCURVE",
"149 156 OFFCURVE",
"149 307 CURVE SMOOTH"
);
}
);
};
layerId = "3F9681A4-5725-441D-B9D2-8C7C614AC445";
paths = (
{
closed = 1;
nodes = (
"151 -200 LINE",
"151 80 LINE",
"165 80 LINE",
"200 21 OFFCURVE",
"245 -14 OFFCURVE",
"316 -14 CURVE SMOOTH",
"438 -14 OFFCURVE",
"538 99 OFFCURVE",
"538 287 CURVE SMOOTH",
"538 473 OFFCURVE",
"437 585 OFFCURVE",
"316 585 CURVE SMOOTH",
"245 585 OFFCURVE",
"201 550 OFFCURVE",
"165 492 CURVE",
"151 492 LINE",
"151 570 LINE",
"55 570 LINE",
"55 -200 LINE"
);
},
{
closed = 1;
nodes = (
"140 416 OFFCURVE",
"193 505 OFFCURVE",
"286 505 CURVE SMOOTH",
"377 505 OFFCURVE",
"438 417 OFFCURVE",
"438 287 CURVE SMOOTH",
"438 155 OFFCURVE",
"377 66 OFFCURVE",
"286 66 CURVE SMOOTH",
"193 66 OFFCURVE",
"140 156 OFFCURVE",
"140 287 CURVE SMOOTH"
);
}
);
width = 570;
}
);
leftKerningGroup = i;
rightKerningGroup = o;
unicode = 0070;
},
{
color = 7;
glyphname = q;
lastChange = "2019-01-16 20:11:41 +0000";
layers = (
{
background = {
paths = (
{
closed = 1;
nodes = (
"455 -200 LINE",
"545 -200 LINE",
"545 580 LINE",
"455 580 LINE",
"455 488 LINE",
"451 488 LINE",
"406 556 OFFCURVE",
"341 594 OFFCURVE",
"263 594 CURVE SMOOTH",
"108 594 OFFCURVE",
"18 463 OFFCURVE",
"18 292 CURVE SMOOTH",
"18 118 OFFCURVE",
"108 -15 OFFCURVE",
"268 -15 CURVE SMOOTH",
"341 -15 OFFCURVE",
"416 22 OFFCURVE",
"451 89 CURVE",
"455 89 LINE"
);
},
{
closed = 1;
nodes = (
"461 147 OFFCURVE",
"390 55 OFFCURVE",
"287 55 CURVE SMOOTH",
"185 55 OFFCURVE",
"111 143 OFFCURVE",
"111 291 CURVE SMOOTH",
"111 433 OFFCURVE",
"188 522 OFFCURVE",
"287 522 CURVE SMOOTH",
"390 522 OFFCURVE",
"461 433 OFFCURVE",
"461 291 CURVE SMOOTH"
);
}
);
};
layerId = "3F9681A4-5725-441D-B9D2-8C7C614AC445";
paths = (
{
closed = 1;
nodes = (
"515 570 LINE",
"419 570 LINE",
"419 492 LINE",
"405 492 LINE",
"369 550 OFFCURVE",
"325 585 OFFCURVE",
"254 585 CURVE SMOOTH",
"133 585 OFFCURVE",
"32 473 OFFCURVE",
"32 287 CURVE SMOOTH",
"32 99 OFFCURVE",
"132 -14 OFFCURVE",
"254 -14 CURVE SMOOTH",
"325 -14 OFFCURVE",
"370 21 OFFCURVE",
"405 80 CURVE",
"419 80 LINE",
"419 -200 LINE",
"515 -200 LINE"
);
},
{
closed = 1;
nodes = (
"430 156 OFFCURVE",
"377 66 OFFCURVE",
"284 66 CURVE SMOOTH",
"193 66 OFFCURVE",
"132 155 OFFCURVE",
"132 287 CURVE SMOOTH",
"132 417 OFFCURVE",
"193 505 OFFCURVE",
"284 505 CURVE SMOOTH",
"377 505 OFFCURVE",
"430 416 OFFCURVE",
"430 287 CURVE SMOOTH"
);
}
);
width = 570;
}
);
leftKerningGroup = o;
rightKerningGroup = q;
unicode = 0071;
},
{
color = 7;
glyphname = r;
lastChange = "2019-01-16 21:21:16 +0000";
layers = (
{
background = {
paths = (
{
closed = 1;
nodes = (
"218 562 OFFCURVE",
"276 580 OFFCURVE",
"341 580 CURVE SMOOTH",
"400 580 LINE",
"400 488 LINE",
"322 488 LINE SMOOTH",
"236 488 OFFCURVE",
"171 439 OFFCURVE",
"171 346 CURVE SMOOTH",
"171 0 LINE",
"75 0 LINE",
"75 580 LINE",
"171 580 LINE",
"171 492 LINE",
"174 492 LINE"
);
}
);
};
layerId = "3F9681A4-5725-441D-B9D2-8C7C614AC445";
paths = (
{
closed = 1;
nodes = (
"210 539 OFFCURVE",
"256 570 OFFCURVE",
"325 570 CURVE SMOOTH",
"375 570 LINE",
"375 484 LINE",
"295 484 LINE SMOOTH",
"217 484 OFFCURVE",
"156 416 OFFCURVE",
"156 336 CURVE SMOOTH",
"156 0 LINE",
"60 0 LINE",
"60 570 LINE",
"154 570 LINE",
"154 462 LINE",
"167 462 LINE"
);
}
);
width = 380;
}
);
leftKerningGroup = i;
leftMetricsKey = "=n";
rightKerningGroup = r;
unicode = 0072;
},
{
color = 7;
glyphname = s;
lastChange = "2019-01-16 19:47:18 +0000";
layers = (
{
background = {
paths = (
{
closed = 1;
nodes = (
"433 -15 OFFCURVE",
"532 54 OFFCURVE",
"530 170 CURVE SMOOTH",
"528 269 OFFCURVE",
"455 343 OFFCURVE",
"304 353 CURVE SMOOTH",
"191 360 OFFCURVE",
"140 392 OFFCURVE",
"140 449 CURVE SMOOTH",
"140 512 OFFCURVE",
"203 549 OFFCURVE",
"284 549 CURVE SMOOTH",
"383 549 OFFCURVE",
"438 484 OFFCURVE",
"438 401 CURVE",
"524 401 LINE",
"524 544 OFFCURVE",
"416 625 OFFCURVE",
"280 625 CURVE SMOOTH",
"127 625 OFFCURVE",
"45 534 OFFCURVE",
"45 437 CURVE SMOOTH",
"45 353 OFFCURVE",
"114 277 OFFCURVE",
"278 269 CURVE SMOOTH",
"397 263 OFFCURVE",
"432 213 OFFCURVE",
"432 161 CURVE SMOOTH",
"432 102 OFFCURVE",
"376 62 OFFCURVE",
"294 62 CURVE SMOOTH",
"209 62 OFFCURVE",
"134 117 OFFCURVE",
"134 212 CURVE",
"48 212 LINE",
"48 82 OFFCURVE",
"141 -15 OFFCURVE",
"290 -15 CURVE SMOOTH"
);
}
);
};
layerId = "3F9681A4-5725-441D-B9D2-8C7C614AC445";
paths = (
{
closed = 1;
nodes = (
"427 -15 OFFCURVE",
"518 53 OFFCURVE",
"518 167 CURVE SMOOTH",
"518 245 OFFCURVE",
"467 306 OFFCURVE",
"355 322 CURVE SMOOTH",
"241 338 LINE SMOOTH",
"172 347 OFFCURVE",
"144 375 OFFCURVE",
"144 413 CURVE SMOOTH",
"144 469 OFFCURVE",
"200 507 OFFCURVE",
"274 507 CURVE SMOOTH",
"368 507 OFFCURVE",
"421 458 OFFCURVE",
"421 394 CURVE",
"512 394 LINE",
"512 516 OFFCURVE",
"408 585 OFFCURVE",
"277 585 CURVE SMOOTH",
"135 585 OFFCURVE",
"52 501 OFFCURVE",
"52 410 CURVE SMOOTH",
"52 339 OFFCURVE",
"104 270 OFFCURVE",
"229 254 CURVE SMOOTH",
"340 239 LINE SMOOTH",
"404 231 OFFCURVE",
"427 200 OFFCURVE",
"427 167 CURVE SMOOTH",
"427 105 OFFCURVE",
"372 63 OFFCURVE",
"296 63 CURVE SMOOTH",
"221 63 OFFCURVE",
"152 99 OFFCURVE",
"150 168 CURVE",
"60 168 LINE",
"60 63 OFFCURVE",
"147 -15 OFFCURVE",
"288 -15 CURVE SMOOTH"
);
}
);
width = 570;
}
);
leftKerningGroup = s;
rightKerningGroup = s;
unicode = 0073;
},
{
color = 7;
glyphname = t;
lastChange = "2019-01-16 19:47:27 +0000";
layers = (
{
background = {
paths = (
{
closed = 1;
nodes = (
"148 502 LINE",
"124 525 LINE",
"124 161 LINE SMOOTH",
"124 58 OFFCURVE",
"178 0 OFFCURVE",
"274 0 CURVE SMOOTH",
"379 0 LINE",
"379 82 LINE",
"290 82 LINE SMOOTH",
"229 82 OFFCURVE",
"214 99 OFFCURVE",
"214 161 CURVE SMOOTH",
"214 525 LINE",
"190 502 LINE",
"357 502 LINE",
"357 580 LINE",
"190 580 LINE",
"214 556 LINE",
"214 720 LINE",
"124 720 LINE",
"124 556 LINE",
"148 580 LINE",
"26 580 LINE",
"26 502 LINE"
);
}
);
};
layerId = "3F9681A4-5725-441D-B9D2-8C7C614AC445";
paths = (
{
closed = 1;
nodes = (
"143 490 LINE",
"118 515 LINE",
"118 129 LINE SMOOTH",
"118 36 OFFCURVE",
"152 0 OFFCURVE",
"238 0 CURVE SMOOTH",
"348 0 LINE",
"348 80 LINE",
"274 80 LINE SMOOTH",
"226 80 OFFCURVE",
"214 92 OFFCURVE",
"214 141 CURVE SMOOTH",
"214 515 LINE",
"189 490 LINE",
"337 490 LINE",
"337 570 LINE",
"189 570 LINE",
"214 545 LINE",
"214 740 LINE",
"118 740 LINE",
"118 545 LINE",
"143 570 LINE",
"20 570 LINE",
"20 490 LINE"
);
}
);
width = 380;
}
);
leftKerningGroup = t;
rightKerningGroup = t;
unicode = 0074;
},
{
color = 7;
glyphname = u;
lastChange = "2019-01-16 19:15:53 +0000";
layers = (
{
background = {
paths = (
{
closed = 1;
nodes = (
"422 23 OFFCURVE",
"340 -15 OFFCURVE",
"258 -15 CURVE SMOOTH",
"120 -15 OFFCURVE",
"55 83 OFFCURVE",
"55 226 CURVE SMOOTH",
"55 610 LINE",
"149 610 LINE",
"149 244 LINE SMOOTH",
"149 126 OFFCURVE",
"189 69 OFFCURVE",
"285 69 CURVE SMOOTH",
"366 69 OFFCURVE",
"458 128 OFFCURVE",
"458 285 CURVE SMOOTH",
"458 610 LINE",
"552 610 LINE",
"552 0 LINE",
"458 0 LINE",
"458 111 LINE",
"478 123 LINE"
);
}
);
};
layerId = "3F9681A4-5725-441D-B9D2-8C7C614AC445";
paths = (
{
closed = 1;
nodes = (
"357 16 OFFCURVE",
"308 -15 OFFCURVE",
"235 -15 CURVE SMOOTH",
"138 -15 OFFCURVE",
"55 73 OFFCURVE",
"55 185 CURVE SMOOTH",
"55 570 LINE",
"151 570 LINE",
"151 223 LINE SMOOTH",
"151 129 OFFCURVE",
"194 71 OFFCURVE",
"275 71 CURVE SMOOTH",
"353 71 OFFCURVE",
"414 139 OFFCURVE",
"414 219 CURVE SMOOTH",
"414 570 LINE",
"510 570 LINE",
"510 0 LINE",
"416 0 LINE",
"416 93 LINE",
"403 93 LINE"
);
}
);
width = 570;
}
);
leftKerningGroup = u;
rightKerningGroup = i;
unicode = 0075;
},
{
color = 7;
glyphname = v;
lastChange = "2019-01-16 21:21:32 +0000";
layers = (
{
layerId = "3F9681A4-5725-441D-B9D2-8C7C614AC445";
paths = (
{
closed = 1;
nodes = (
"277 121 OFFCURVE",
"267 153 OFFCURVE",
"256 185 CURVE SMOOTH",
"118 570 LINE",
"19 570 LINE",
"227 0 LINE",
"354 0 LINE",
"551 570 LINE",
"452 570 LINE",
"321 185 LINE SMOOTH",
"310 153 OFFCURVE",
"301 121 OFFCURVE",
"296 89 CURVE",
"283 89 LINE"
);
}
);
width = 570;
}
);
leftKerningGroup = v;
rightKerningGroup = v;
unicode = 0076;
},
{
color = 7;
glyphname = w;
lastChange = "2019-01-16 21:18:14 +0000";
layers = (
{
layerId = "3F9681A4-5725-441D-B9D2-8C7C614AC445";
paths = (
{
closed = 1;
nodes = (
"171 0 LINE",
"299 0 LINE",
"407 418 LINE SMOOTH",
"414 444 OFFCURVE",
"421 471 OFFCURVE",
"423 497 CURVE",
"436 497 LINE",
"439 471 OFFCURVE",
"446 445 OFFCURVE",
"453 419 CURVE SMOOTH",
"566 0 LINE",
"694 0 LINE",
"839 580 LINE",
"747 580 LINE",
"653 185 LINE SMOOTH",
"645 153 OFFCURVE",
"636 121 OFFCURVE",
"631 89 CURVE",
"618 89 LINE",
"612 121 OFFCURVE",
"602 153 OFFCURVE",
"594 185 CURVE SMOOTH",
"492 580 LINE",
"364 580 LINE",
"268 185 LINE SMOOTH",
"260 153 OFFCURVE",
"251 121 OFFCURVE",
"246 89 CURVE",
"233 89 LINE",
"227 121 OFFCURVE",
"217 153 OFFCURVE",
"209 185 CURVE SMOOTH",
"108 580 LINE",
"16 580 LINE"
);
}
);
width = 855;
}
);
leftKerningGroup = v;
rightKerningGroup = v;
unicode = 0077;
},
{
color = 7;
glyphname = x;
lastChange = "2019-01-16 22:09:16 +0000";
layers = (
{
layerId = "3F9681A4-5725-441D-B9D2-8C7C614AC445";
paths = (
{
closed = 1;
nodes = (
"294 238 LINE",
"296 225 OFFCURVE",
"303 211 OFFCURVE",
"311 199 CURVE SMOOTH",
"446 0 LINE",
"553 0 LINE",
"342 312 LINE",
"342 274 LINE",
"540 570 LINE",
"437 570 LINE",
"311 378 LINE SMOOTH",
"303 366 OFFCURVE",
"299 351 OFFCURVE",
"297 338 CURVE",
"283 338 LINE",
"281 351 OFFCURVE",
"276 366 OFFCURVE",
"268 378 CURVE SMOOTH",
"142 570 LINE",
"39 570 LINE",
"238 274 LINE",
"238 312 LINE",
"20 0 LINE",
"127 0 LINE",
"264 199 LINE SMOOTH",
"272 211 OFFCURVE",
"279 225 OFFCURVE",
"281 238 CURVE"
);
}
);
width = 570;
}
);
leftKerningGroup = x;
rightKerningGroup = x;
unicode = 0078;
},
{
color = 7;
glyphname = y;
lastChange = "2019-01-16 21:21:56 +0000";
layers = (
{
background = {
paths = (
{
closed = 1;
nodes = (
"277 121 OFFCURVE",
"267 153 OFFCURVE",
"256 185 CURVE SMOOTH",
"118 580 LINE",
"16 580 LINE",
"231 0 LINE",
"349 0 LINE",
"554 580 LINE",
"452 580 LINE",
"321 185 LINE SMOOTH",
"311 153 OFFCURVE",
"301 121 OFFCURVE",
"296 89 CURVE",
"283 89 LINE"
);
}
);
};
layerId = "3F9681A4-5725-441D-B9D2-8C7C614AC445";
paths = (
{
closed = 1;
nodes = (
"241 -37 LINE",
"241 8 LINE",
"205 -89 LINE SMOOTH",
"197 -111 OFFCURVE",
"189 -116 OFFCURVE",
"163 -116 CURVE SMOOTH",
"60 -116 LINE",
"60 -200 LINE",
"201 -200 LINE SMOOTH",
"245 -200 OFFCURVE",
"272 -182 OFFCURVE",
"298 -112 CURVE SMOOTH",
"555 570 LINE",
"451 570 LINE",
"317 198 LINE SMOOTH",
"306 166 OFFCURVE",
"297 134 OFFCURVE",
"292 102 CURVE",
"279 102 LINE",
"273 134 OFFCURVE",
"263 166 OFFCURVE",
"252 198 CURVE SMOOTH",
"120 570 LINE",
"16 570 LINE"
);
}
);
width = 570;
}
);
leftKerningGroup = v;
rightKerningGroup = v;
unicode = 0079;
},
{
color = 3;
glyphname = z;
lastChange = "2019-01-16 19:03:22 +0000";
layers = (
{
layerId = "3F9681A4-5725-441D-B9D2-8C7C614AC445";
paths = (
{
closed = 1;
nodes = (
"181 75 OFFCURVE",
"200 76 OFFCURVE",
"216 76 CURVE SMOOTH",
"517 76 LINE",
"517 0 LINE",
"71 0 LINE",
"71 78 LINE",
"380 475 LINE SMOOTH",
"387 485 OFFCURVE",
"399 495 OFFCURVE",
"410 503 CURVE",
"408 507 LINE",
"396 503 OFFCURVE",
"377 502 OFFCURVE",
"361 502 CURVE SMOOTH",
"87 502 LINE",
"87 580 LINE",
"503 580 LINE",
"503 503 LINE",
"197 102 LINE SMOOTH",
"189 93 OFFCURVE",
"178 83 OFFCURVE",
"166 75 CURVE",
"168 71 LINE"
);
}
);
width = 558;
}
);
leftKerningGroup = z;
rightKerningGroup = z;
unicode = 007A;
},
{
color = 3;
glyphname = a.alt;
lastChange = "2019-01-16 19:03:22 +0000";
layers = (
{
background = {
paths = (
{
closed = 1;
nodes = (
"499 610 LINE",
"499 499 LINE",
"520 487 LINE",
"474 575 OFFCURVE",
"394 625 OFFCURVE",
"296 625 CURVE SMOOTH",
"135 625 OFFCURVE",
"40 487 OFFCURVE",
"40 307 CURVE SMOOTH",
"40 125 OFFCURVE",
"135 -15 OFFCURVE",
"313 -15 CURVE SMOOTH",
"405 -15 OFFCURVE",
"472 23 OFFCURVE",
"515 96 CURVE",
"499 120 LINE",
"504 80 OFFCURVE",
"508 34 OFFCURVE",
"514 0 CURVE",
"608 0 LINE",
"599 63 OFFCURVE",
"594 115 OFFCURVE",
"594 183 CURVE",
"594 610 LINE"
);
},
{
closed = 1;
nodes = (
"505 156 OFFCURVE",
"430 60 OFFCURVE",
"323 60 CURVE SMOOTH",
"219 60 OFFCURVE",
"140 155 OFFCURVE",
"140 307 CURVE SMOOTH",
"140 456 OFFCURVE",
"219 550 OFFCURVE",
"323 550 CURVE SMOOTH",
"430 550 OFFCURVE",
"505 456 OFFCURVE",
"505 307 CURVE SMOOTH"
);
}
);
};
layerId = "3F9681A4-5725-441D-B9D2-8C7C614AC445";
paths = (
{
closed = 1;
nodes = (
"503 61 OFFCURVE",
"507 33 OFFCURVE",
"514 0 CURVE",
"609 0 LINE",
"598 61 OFFCURVE",
"594 117 OFFCURVE",
"594 183 CURVE SMOOTH",
"594 610 LINE",
"499 610 LINE",
"499 513 LINE",
"495 513 LINE",
"448 585 OFFCURVE",
"380 625 OFFCURVE",
"298 625 CURVE SMOOTH",
"135 625 OFFCURVE",
"40 487 OFFCURVE",
"40 307 CURVE SMOOTH",
"40 125 OFFCURVE",
"135 -15 OFFCURVE",
"303 -15 CURVE SMOOTH",
"380 -15 OFFCURVE",
"460 26 OFFCURVE",
"498 99 CURVE",
"502 99 LINE"
);
},
{
closed = 1;
nodes = (
"506 155 OFFCURVE",
"431 59 OFFCURVE",
"323 59 CURVE SMOOTH",
"216 59 OFFCURVE",
"138 151 OFFCURVE",
"138 306 CURVE SMOOTH",
"138 455 OFFCURVE",
"219 549 OFFCURVE",
"323 549 CURVE SMOOTH",
"431 549 OFFCURVE",
"506 455 OFFCURVE",
"506 306 CURVE SMOOTH"
);
}
);
width = 659;
}
);
leftMetricsKey = "=d";
rightMetricsKey = "=d";
},
{
color = 3;
glyphname = i.alt;
lastChange = "2019-01-16 19:03:22 +0000";
layers = (
{
layerId = "3F9681A4-5725-441D-B9D2-8C7C614AC445";
paths = (
{
closed = 1;
nodes = (
"47 654 LINE",
"194 654 LINE",
"194 800 LINE",
"47 800 LINE"
);
},
{
closed = 1;
nodes = (
"73 0 LINE",
"167 0 LINE",
"167 572 LINE",
"73 572 LINE"
);
}
);
width = 241;
}
);
},
{
color = 3;
glyphname = j.alt;
lastChange = "2019-01-16 19:03:22 +0000";
layers = (
{
layerId = "3F9681A4-5725-441D-B9D2-8C7C614AC445";
paths = (
{
closed = 1;
nodes = (
"63 654 LINE",
"210 654 LINE",
"210 800 LINE",
"63 800 LINE"
);
},
{
closed = 1;
nodes = (
"25 -200 LINE SMOOTH",
"127 -200 OFFCURVE",
"183 -139 OFFCURVE",
"183 -31 CURVE SMOOTH",
"183 572 LINE",
"89 572 LINE",
"89 -31 LINE SMOOTH",
"89 -96 OFFCURVE",
"73 -114 OFFCURVE",
"9 -114 CURVE SMOOTH",
"-65 -114 LINE",
"-65 -200 LINE"
);
}
);
width = 257;
}
);
rightMetricsKey = "=i.alt";
},
{
color = 3;
glyphname = comma;
lastChange = "2019-01-16 19:03:22 +0000";
layers = (
{
layerId = "3F9681A4-5725-441D-B9D2-8C7C614AC445";
paths = (
{
closed = 1;
nodes = (
"46 -103 LINE",
"77 -103 LINE SMOOTH",
"115 -103 OFFCURVE",
"125 -86 OFFCURVE",
"125 -47 CURVE SMOOTH",
"125 25 LINE",
"150 0 LINE",
"58 0 LINE",
"58 128 LINE",
"182 128 LINE",
"182 -49 LINE SMOOTH",
"182 -116 OFFCURVE",
"162 -159 OFFCURVE",
"77 -159 CURVE SMOOTH",
"46 -159 LINE"
);
}
);
width = 240;
}
);
leftKerningGroup = period;
rightKerningGroup = period;
unicode = 002C;
},
{
color = 3;
glyphname = period;
lastChange = "2019-01-16 19:03:22 +0000";
layers = (
{
layerId = "3F9681A4-5725-441D-B9D2-8C7C614AC445";
paths = (
{
closed = 1;
nodes = (
"182 128 LINE",
"182 0 LINE",
"58 0 LINE",
"58 128 LINE"
);
}
);
width = 240;
}
);
leftKerningGroup = period;
rightKerningGroup = period;
unicode = 002E;
},
{
color = 3;
glyphname = period.alt;
lastChange = "2019-01-16 19:03:22 +0000";
layers = (
{
layerId = "3F9681A4-5725-441D-B9D2-8C7C614AC445";
paths = (
{
closed = 1;
nodes = (
"224 171 LINE",
"224 0 LINE",
"58 0 LINE",
"58 171 LINE"
);
}
);
width = 282;
}
);
leftKerningGroup = period;
leftMetricsKey = "=period";
rightKerningGroup = period;
rightMetricsKey = "=period";
},
{
glyphname = .notdef;
lastChange = "2019-01-16 19:03:22 +0000";
layers = (
{
layerId = "3F9681A4-5725-441D-B9D2-8C7C614AC445";
paths = (
{
closed = 1;
nodes = (
"0 -160 LINE",
"410 -160 LINE",
"410 800 LINE",
"0 800 LINE"
);
},
{
closed = 1;
nodes = (
"380 770 LINE",
"380 -130 LINE",
"30 -130 LINE",
"30 770 LINE"
);
},
{
closed = 1;
nodes = (
"390 -140 LINE",
"40 -140 LINE",
"40 -200 LINE",
"450 -200 LINE",
"450 760 LINE",
"390 760 LINE"
);
}
);
width = 450;
}
);
},
